<svg width="43" height="43" viewBox="0 0 43 43" fill="none" xmlns="http://www.w3.org/2000/svg">
<g clip-path="url(#clip0_214_162)">
<path d="M21.3636 43.0002C33.0118 43.0002 42.4545 33.5575 42.4545 21.9093C42.4545 10.2611 33.0118 0.818359 21.3636 0.818359C9.71543 0.818359 0.272705 10.2611 0.272705 21.9093C0.272705 33.5575 9.71543 43.0002 21.3636 43.0002Z" fill="#4176FA"/>
<path d="M28.9265 18.2414C22.8348 18.2414 22.8269 24.3102 22.8269 24.3414C22.8269 24.3414 22.4095 30.4178 28.9265 30.4178C28.9265 30.4178 34.3615 30.7268 34.3615 26.1889H31.5707C31.5707 26.1889 31.6632 27.8973 29.0194 27.8973C29.0194 27.8973 26.2286 28.083 26.2286 25.1373H34.4544C34.4544 25.1373 35.3589 18.2414 28.9265 18.2414ZM26.1974 23.0112C26.1974 23.0112 26.5376 20.5682 28.9886 20.5682C31.447 20.5682 31.4083 23.0112 31.4083 23.0112H26.1974ZM19.2247 21.4499C19.2247 21.4499 21.6445 21.272 21.6445 18.4271C21.6445 15.5901 19.6654 14.1982 17.1528 14.1982H8.88794V30.085H17.152C17.152 30.085 22.2005 30.2399 22.2005 25.3926C22.2005 25.3926 22.4174 21.4499 19.2247 21.4499ZM12.5295 17.0199H17.1524C17.1524 17.0199 18.2735 17.0199 18.2735 18.6741C18.2735 20.3284 17.6164 20.5682 16.8663 20.5682H12.5295V17.0199ZM16.9208 27.2634H12.5295V23.0112H17.1524C17.1524 23.0112 18.8304 22.9958 18.8225 25.199C18.8225 27.0548 17.578 27.248 16.9208 27.2634ZM25.5094 15.1336V17.0898H32.0655V15.1336H25.5094Z" fill="#F1F2F2"/>
</g>
<defs>
<clipPath id="clip0_214_162">
<rect width="42.1818" height="42.1818" fill="white" transform="translate(0.272705 0.818359)"/>
</clipPath>
</defs>
</svg>
