<svg width="28" height="29" viewBox="0 0 28 29" fill="none" xmlns="http://www.w3.org/2000/svg">
<g clip-path="url(#clip0_214_659)">
<path fill-rule="evenodd" clip-rule="evenodd" d="M14 16.9756L20.1868 23.1624C20.5151 23.4907 20.9604 23.6751 21.4247 23.6751C21.8889 23.6751 22.3342 23.4907 22.6625 23.1624C22.9908 22.8341 23.1752 22.3888 23.1752 21.9246C23.1752 21.4603 22.9908 21.015 22.6625 20.6867L16.4733 14.4999L22.6613 8.31305C22.8238 8.1505 22.9527 7.95753 23.0406 7.74517C23.1285 7.53281 23.1737 7.30522 23.1736 7.07539C23.1736 6.84556 23.1283 6.61798 23.0403 6.40567C22.9523 6.19335 22.8233 6.00045 22.6607 5.83797C22.4982 5.67549 22.3052 5.54662 22.0929 5.45872C21.8805 5.37081 21.6529 5.3256 21.4231 5.32565C21.1932 5.32571 20.9657 5.37103 20.7534 5.45903C20.541 5.54704 20.3481 5.676 20.1857 5.83855L14 12.0254L7.81315 5.83855C7.6518 5.67133 7.45876 5.53793 7.2453 5.44611C7.03183 5.3543 6.80222 5.30591 6.56986 5.30378C6.3375 5.30166 6.10704 5.34583 5.89193 5.43372C5.67682 5.52161 5.48137 5.65146 5.31698 5.81569C5.15259 5.97992 5.02256 6.17525 4.93446 6.39028C4.84637 6.60531 4.80198 6.83572 4.80389 7.06809C4.8058 7.30045 4.85397 7.53011 4.94558 7.74366C5.03719 7.95721 5.17042 8.15037 5.33749 8.31188L11.5267 14.4999L5.33865 20.6879C5.17159 20.8494 5.03836 21.0426 4.94675 21.2561C4.85513 21.4697 4.80697 21.6993 4.80506 21.9317C4.80315 22.164 4.84754 22.3945 4.93563 22.6095C5.02372 22.8245 5.15376 23.0198 5.31815 23.1841C5.48254 23.3483 5.67799 23.4782 5.8931 23.5661C6.1082 23.6539 6.33866 23.6981 6.57103 23.696C6.80339 23.6939 7.033 23.6455 7.24646 23.5537C7.45992 23.4618 7.65297 23.3284 7.81432 23.1612L14 16.9756Z" fill="white"/>
</g>
<defs>
<clipPath id="clip0_214_659">
<rect width="28" height="28" fill="white" transform="translate(0 0.5)"/>
</clipPath>
</defs>
</svg>
