<svg width="18" height="18" viewBox="0 0 18 18" fill="none" xmlns="http://www.w3.org/2000/svg">
<path d="M8.99983 0.00195312C4.0376 0.00195312 0 4.03755 0 9.00105C0 13.9626 4.0376 18.0002 8.99983 18.0002C13.9626 18.0002 18 13.9626 18 9.00105C18 4.03755 13.9626 0.00195312 8.99983 0.00195312ZM8.99983 15.9952C5.14268 15.9952 2.00501 12.8577 2.00501 9.00109C2.00501 5.14282 5.14268 2.00535 8.99983 2.00535C12.8574 2.00535 15.9951 5.14287 15.9951 9.00109C15.995 12.8577 12.8574 15.9952 8.99983 15.9952Z" fill="#ADADAD"/>
<path d="M11.9544 10.6304C11.3794 11.6169 10.3104 12.229 9.16442 12.229C7.38488 12.229 5.93535 10.7798 5.93535 9.00017C5.93535 7.21911 7.38488 5.76943 9.16442 5.76943C10.3104 5.76943 11.3794 6.38369 11.9544 7.36832L12.0287 7.497H14.1977L14.0675 7.14779C13.6901 6.14788 13.0278 5.29772 12.1511 4.6909C11.2723 4.08252 10.2399 3.75977 9.16442 3.75977C6.2753 3.75977 3.92578 6.11129 3.92578 9.00017C3.92578 11.8892 6.2753 14.2386 9.16442 14.2386C10.2399 14.2386 11.2722 13.9169 12.1511 13.3076C13.0278 12.7006 13.6901 11.8507 14.0675 10.8508L14.1977 10.5014H12.0287L11.9544 10.6304Z" fill="#ADADAD"/>
</svg>
