<svg width="43" height="43" viewBox="0 0 43 43" fill="none" xmlns="http://www.w3.org/2000/svg">
<g clip-path="url(#clip0_214_157)">
<path d="M21.0909 43.0002C32.7391 43.0002 42.1818 33.5575 42.1818 21.9093C42.1818 10.2611 32.7391 0.818359 21.0909 0.818359C9.44272 0.818359 0 10.2611 0 21.9093C0 33.5575 9.44272 43.0002 21.0909 43.0002Z" fill="#F26798"/>
<path d="M21.0888 8.51465C13.6939 8.51465 7.67773 14.5237 7.67773 21.9092C7.67773 29.2946 13.6939 35.3033 21.0888 35.3033C28.484 35.3033 34.5006 29.295 34.5006 21.9092C34.5006 14.5237 28.484 8.51465 21.0888 8.51465ZM29.9138 14.8365C31.4436 16.7325 32.3734 19.127 32.4163 21.7362C31.9072 21.6317 29.7514 21.2298 27.1753 21.2298C26.344 21.2298 25.4692 21.2715 24.592 21.3798C24.518 21.1997 24.4439 21.0204 24.3661 20.8392C24.1386 20.3042 23.8935 19.7733 23.6397 19.2503C27.6047 17.6168 29.5172 15.3497 29.9138 14.8365ZM21.0888 10.6114C23.9465 10.6114 26.5587 11.6731 28.554 13.4218C28.2382 13.8526 26.5253 15.9937 22.7021 17.4382C20.9324 14.2034 18.9954 11.5246 18.5345 10.9028C19.356 10.7125 20.2109 10.6114 21.0888 10.6114ZM16.2219 11.7092C16.6126 12.2472 18.5525 14.9546 20.3677 18.1634C15.4963 19.444 11.1705 19.5274 10.1264 19.5274H10.0155C10.7655 16.0708 13.101 13.1984 16.2219 11.7092ZM9.75833 21.9268C9.75833 21.8336 9.75983 21.7404 9.76284 21.6475C9.83051 21.6483 9.93052 21.6483 10.0602 21.6483C11.4663 21.6483 16.3471 21.5321 21.3768 20.0395C21.6821 20.6365 21.9727 21.2426 22.243 21.8483C22.1159 21.8847 21.9907 21.9212 21.8663 21.9618C16.2031 23.7909 13.0905 28.6329 12.6115 29.4244C10.837 27.425 9.75833 24.8 9.75833 21.9268ZM21.0888 33.2415C18.4901 33.2415 16.0918 32.3614 14.1782 30.8857C14.5019 30.2511 16.8513 26.0211 23.0574 23.8612C23.0611 23.8597 23.0652 23.8582 23.0698 23.8571C24.6259 27.9085 25.2849 31.3087 25.4658 32.3625C24.1191 32.9287 22.64 33.2415 21.0888 33.2415ZM27.5065 31.247C27.3546 30.3752 26.7441 27.1885 25.3349 23.3018C26.1252 23.1788 26.8941 23.1303 27.6152 23.1303C29.9834 23.1303 31.8358 23.6488 32.2663 23.7804C31.7546 26.8667 29.9875 29.5375 27.5065 31.247Z" fill="#F1F2F2"/>
</g>
<defs>
<clipPath id="clip0_214_157">
<rect width="42.1818" height="42.1818" fill="white" transform="translate(0 0.818359)"/>
</clipPath>
</defs>
</svg>
