<svg width="43" height="43" viewBox="0 0 43 43" fill="none" xmlns="http://www.w3.org/2000/svg">
<g clip-path="url(#clip0_214_173)">
<path d="M21.9091 43.0002C33.5573 43.0002 43.0001 33.5575 43.0001 21.9093C43.0001 10.2611 33.5573 0.818359 21.9091 0.818359C10.261 0.818359 0.818237 10.2611 0.818237 21.9093C0.818237 33.5575 10.261 43.0002 21.9091 43.0002Z" fill="#3B5998"/>
<path d="M27.2122 22.7344H23.4488V36.5218H17.7469V22.7344H15.0351V17.8889H17.7469V14.7534C17.7469 12.5111 18.812 9 23.4996 9L27.7232 9.01767V13.721H24.6587C24.156 13.721 23.4492 13.9721 23.4492 15.0418V17.8935H27.7104L27.2122 22.7344Z" fill="white"/>
</g>
<defs>
<clipPath id="clip0_214_173">
<rect width="42.1818" height="42.1818" fill="white" transform="translate(0.818176 0.818359)"/>
</clipPath>
</defs>
</svg>
