<svg width="43" height="43" viewBox="0 0 43 43" fill="none" xmlns="http://www.w3.org/2000/svg">
<g clip-path="url(#clip0_214_168)">
<path d="M21.6364 42.9992C33.2846 42.9992 42.7274 33.5565 42.7274 21.9083C42.7274 10.2601 33.2846 0.817383 21.6364 0.817383C9.98825 0.817383 0.545532 10.2601 0.545532 21.9083C0.545532 33.5565 9.98825 42.9992 21.6364 42.9992Z" fill="#007AB9"/>
<path d="M34.2353 23.6062V32.3015H29.1939V24.1889C29.1939 22.152 28.4661 20.7609 26.6408 20.7609C25.2478 20.7609 24.4203 21.6974 24.0549 22.6042C23.9221 22.9283 23.8879 23.3784 23.8879 23.8329V32.3011H18.8462C18.8462 32.3011 18.9139 18.5611 18.8462 17.1388H23.8883V19.2875C23.8782 19.3044 23.8639 19.3209 23.8549 19.3371H23.8883V19.2875C24.5583 18.2566 25.7531 16.7828 28.4319 16.7828C31.7486 16.7828 34.2353 18.9499 34.2353 23.6062ZM13.5722 9.83008C11.8476 9.83008 10.7194 10.9621 10.7194 12.4494C10.7194 13.9052 11.8149 15.0699 13.506 15.0699H13.5387C15.2971 15.0699 16.3904 13.9052 16.3904 12.4494C16.357 10.9621 15.2971 9.83008 13.5722 9.83008ZM11.019 32.3015H16.0588V17.1388H11.019V32.3015Z" fill="#F1F2F2"/>
</g>
<defs>
<clipPath id="clip0_214_168">
<rect width="42.1818" height="42.1818" fill="white" transform="translate(0.545471 0.818359)"/>
</clipPath>
</defs>
</svg>
